<?xml version="1.0" encoding="UTF-8"?>
<svg version="1.1" xmlns="http://www.w3.org/2000/svg" width="1481" height="1111">
<path d="M0 0 C488.73 0 977.46 0 1481 0 C1481 366.63 1481 733.26 1481 1111 C992.27 1111 503.54 1111 0 1111 C0 744.37 0 377.74 0 0 Z " fill="#FEFEFF" transform="translate(0,0)"/>
<path d="M0 0 C5.28 0 10.56 0 16 0 C16 33.66 16 67.32 16 102 C50.98 102 85.96 102 122 102 C118.68101922 90.97748418 118.68101922 90.97748418 114.3125 80.5 C113.97001221 79.78497314 113.62752441 79.06994629 113.2746582 78.33325195 C101.37707993 54.20708385 81.41364024 36.5865066 56.30078125 27.04296875 C52.27319851 25.77034793 48.12327669 24.91628371 44 24 C44 42.15 44 60.3 44 79 C54.56 79 65.12 79 76 79 C76 68.44 76 57.88 76 47 C94.33226226 54.33290491 102.67290918 73.41616904 111.14892578 89.95385742 C112 92 112 92 112 95 C83.95 95 55.9 95 27 95 C27 64.31 27 33.62 27 2 C58.50315924 4.42331994 88.03180528 19.16336827 108.84765625 43.21484375 C125.07536267 62.74934949 140 90.09230395 140 116 C99.08 116 58.16 116 16 116 C16 119.63 16 123.26 16 127 C57.58 127 99.16 127 142 127 C142 132.28 142 137.56 142 143 C100.42 143 58.84 143 16 143 C16 146.96 16 150.92 16 155 C57.25 155 98.5 155 141 155 C136.72897641 182.76165334 126.22796083 207.50787717 108 229 C107.41089844 229.73476563 106.82179687 230.46953125 106.21484375 231.2265625 C90.96624853 249.55077672 68.7356054 260.79213614 46.0625 266.875 C45.30630371 267.07826904 44.55010742 267.28153809 43.77099609 267.4909668 C38.08101165 268.92557851 32.97437879 269.40256212 27 270 C27 238.98 27 207.96 27 176 C55.38 176 83.76 176 113 176 C108.6029812 189.19105641 101.62150845 202.8658702 92 213 C91.3090625 213.74507812 90.618125 214.49015625 89.90625 215.2578125 C86.57198987 218.72892659 83.41000432 221.92470385 79 224 C78.34 224 77.68 224 77 224 C77 213.44 77 202.88 77 192 C66.11 192 55.22 192 44 192 C44 210.48 44 228.96 44 248 C55.55010096 244.85367272 55.55010096 244.85367272 66.1875 240.1875 C67.18946411 239.66712158 67.18946411 239.66712158 68.21166992 239.13623047 C94.57637908 225.24538575 109.82055649 204.44546126 120 177 C120.52701399 175.5920702 121.05460911 174.1843578 121.58276367 172.77685547 C121.84925217 172.06657196 122.11574066 171.35628845 122.39030457 170.6244812 C122.59150406 170.0884024 122.79270355 169.55232361 123 169 C122.19044861 169.01252808 121.38089722 169.02505615 120.54681396 169.03796387 C112.72907754 169.15844479 104.9113058 169.2761656 97.09348679 169.39115143 C93.079066 169.4502838 89.06466366 169.51030651 85.05029297 169.57275391 C81.14039672 169.63353678 77.23046587 169.69147397 73.32050323 169.74781799 C71.86538567 169.76921441 70.41028022 169.79146204 68.95519257 169.81480408 C51.30253071 170.09644625 33.65778001 170 16 170 C16 203 16 236 16 270 C10.72 270 5.44 270 0 270 C0 237 0 204 0 170 C-34.98 170 -69.96 170 -106 170 C-92.79172328 203.96414015 -76.53359458 228.47732655 -43.125 244.4375 C-42.43583496 244.76766113 -41.74666992 245.09782227 -41.03662109 245.43798828 C-40.03236084 245.89987549 -40.03236084 245.89987549 -39.0078125 246.37109375 C-38.13600342 246.7721936 -38.13600342 246.7721936 -37.24658203 247.18139648 C-33.91825661 248.39416275 -30.43662654 249.14084336 -27 250 C-26.67 230.86 -26.34 211.72 -26 192 C-36.89 192 -47.78 192 -59 192 C-59 202.89 -59 213.78 -59 225 C-74.7932788 218.68268848 -86.7892742 202.0213646 -93.38671875 186.80078125 C-96 179.78618421 -96 179.78618421 -96 177 C-68.28 177 -40.56 177 -12 177 C-12 207.36 -12 237.72 -12 269 C-18.68769377 268.33123062 -24.02448542 267.74378518 -30.1875 265.625 C-30.94087646 265.36734863 -31.69425293 265.10969727 -32.47045898 264.84423828 C-67.90538501 252.21375458 -98.57535516 229.21750098 -115.25 194.875 C-121.17445248 182.14083203 -124.60672804 168.93271958 -126 155 C-84.42 155 -42.84 155 0 155 C0 151.04 0 147.08 0 143 C-42.24 143 -84.48 143 -128 143 C-128 137.72 -128 132.44 -128 127 C-85.76 127 -43.52 127 0 127 C0 123.37 0 119.74 0 116 C-41.58 116 -83.16 116 -126 116 C-126 109.08459331 -125.43350361 104.58738712 -123.5625 98.1875 C-123.29808105 97.27750244 -123.03366211 96.36750488 -122.76123047 95.42993164 C-112.59208964 62.0347969 -89.73585251 35.15281399 -59.24902344 18.49707031 C-44.21529171 10.64285966 -28.90405719 4.11300715 -12 2 C-12 32.69 -12 63.38 -12 95 C-40.05 95 -68.1 95 -97 95 C-89.8887129 75.08839613 -78.65716851 55.82858425 -59 46 C-59 56.89 -59 67.78 -59 79 C-48.11 79 -37.22 79 -26 79 C-26 59.86 -26 40.72 -26 21 C-61.17122577 32.72374192 -83.75260806 52.30269546 -100.39453125 85.2578125 C-102.59064987 90.37674592 -104.2385683 95.7157049 -106 101 C-71.02 101 -36.04 101 0 101 C0 67.67 0 34.34 0 0 Z " fill="#6170FF" transform="translate(141,422)"/>
<path d="M0 0 C1.23234375 0.3403125 2.4646875 0.680625 3.734375 1.03125 C22.98876162 6.84686065 37.68387699 18.61178717 47.72265625 35.98046875 C56.87697044 53.36691806 59.21023098 75.96248655 53.97265625 94.98828125 C47.55116753 114.87168609 37.48384696 130.49425703 18.79296875 140.76171875 C-2.90850894 151.17947769 -29.5837386 154.27385388 -52.8359375 147.12890625 C-53.88007812 146.75636719 -54.92421875 146.38382813 -56 146 C-56.92039062 145.69964844 -57.84078125 145.39929688 -58.7890625 145.08984375 C-76.53551528 138.74397596 -90.2588297 125.24044978 -98.25 108.4375 C-106.60027986 89.51019897 -108.23897188 66.94391343 -102 47 C-98.40520396 37.82982184 -93.62761247 29.31982977 -87 22 C-86.41992188 21.32839844 -85.83984375 20.65679687 -85.2421875 19.96484375 C-64.69859324 -2.34085797 -28.24192852 -8.14418404 0 0 Z " fill="#6070FF" transform="translate(618,475)"/>
<path d="M0 0 C14.56125 -0.0825 29.1225 -0.165 44.125 -0.25 C48.69617676 -0.28641602 53.26735352 -0.32283203 57.97705078 -0.36035156 C63.62670898 -0.37841797 63.62670898 -0.37841797 66.28463745 -0.3817749 C68.11239536 -0.3878545 69.94013883 -0.40179013 71.76779175 -0.42230225 C89.63708719 -0.61255385 106.05797189 1.44790993 119.8125 14.125 C125.93272695 20.62980136 130.68744956 28.9360372 131 38 C131.04898438 39.05058594 131.09796875 40.10117187 131.1484375 41.18359375 C131.55032598 55.54337844 127.36026698 66.09416018 118 77 C108.37386207 85.73420557 94.38003178 92.14980725 81.2097168 92.11352539 C80.27639526 92.11340454 79.34307373 92.11328369 78.38146973 92.11315918 C76.93000549 92.10548523 76.93000549 92.10548523 75.44921875 92.09765625 C74.54997681 92.09664917 73.65073486 92.09564209 72.72424316 92.09460449 C69.37864906 92.08938911 66.03307319 92.07542787 62.6875 92.0625 C55.200625 92.041875 47.71375 92.02125 40 92 C40 109.82 40 127.64 40 146 C26.8 146 13.6 146 0 146 C0 97.82 0 49.64 0 0 Z " fill="#5F6FFF" transform="translate(845,476)"/>
<path d="M0 0 C13.2 0 26.4 0 40 0 C40 21.12 40 42.24 40 64 C57.82 64 75.64 64 94 64 C94 42.88 94 21.76 94 0 C107.53 0 121.06 0 135 0 C135 48.51 135 97.02 135 147 C121.47 147 107.94 147 94 147 C94 125.88 94 104.76 94 83 C76.51 83 59.02 83 41 83 C41 104.12 41 125.24 41 147 C27.47 147 13.94 147 0 147 C0 98.49 0 49.98 0 0 Z " fill="#6170FF" transform="translate(353,476)"/>
<path d="M0 0 C1.35448242 -0.01836914 1.35448242 -0.01836914 2.73632812 -0.03710938 C17.84996381 -0.06994131 30.90571571 5.83114246 42.5625 15.1875 C43.59375 15.93 44.625 16.6725 45.6875 17.4375 C60.65675121 31.7559142 69.19249709 52.05256557 69.765625 72.62109375 C69.92284517 84.83862224 69.34564543 96.28182235 66.5625 108.1875 C66.3459375 109.15171875 66.129375 110.1159375 65.90625 111.109375 C59.38680735 137.34237041 45.64968801 162.92641999 25.5625 181.1875 C24.81484375 180.77757812 24.0671875 180.36765625 23.296875 179.9453125 C22.31203125 179.40648437 21.3271875 178.86765625 20.3125 178.3125 C19.33796875 177.77882813 18.3634375 177.24515625 17.359375 176.6953125 C15.11119592 175.48330534 12.8552195 174.31202433 10.5625 173.1875 C11.21550774 168.6599797 12.97589102 164.80133061 14.875 160.6875 C18.02518827 153.65103827 20.56968228 146.64756981 22.5625 139.1875 C22.90023438 137.96417969 23.23796875 136.74085938 23.5859375 135.48046875 C28.83473458 115.59791734 29.85102199 95.58403789 29.9375 75.125 C29.94535522 74.20761047 29.95321045 73.29022095 29.96130371 72.34503174 C30.07093286 55.89440492 29.99587629 37.56636876 18.93359375 24.22265625 C13.69189745 19.24851754 7.20794912 17.11126442 0.0625 16.8125 C-7.8023713 17.15445093 -13.93026256 19.68697364 -19.65234375 25.11328125 C-28.96515037 35.93406969 -30.49497913 51.36964261 -30.75390625 65.05859375 C-30.77255737 65.87718872 -30.7912085 66.69578369 -30.8104248 67.53918457 C-30.87820518 70.56769049 -30.93868214 73.59635634 -31 76.625 C-31.144375 83.410625 -31.28875 90.19625 -31.4375 97.1875 C-16.9175 97.1875 -2.3975 97.1875 12.5625 97.1875 C12.5625 102.7975 12.5625 108.4075 12.5625 114.1875 C-1.9575 114.1875 -16.4775 114.1875 -31.4375 114.1875 C-31.4375 125.7375 -31.4375 137.2875 -31.4375 149.1875 C-44.6375 149.1875 -57.8375 149.1875 -71.4375 149.1875 C-71.59793524 128.40668023 -71.59793524 128.40668023 -71.6328125 119.44726562 C-71.65658713 113.36907727 -71.68449996 107.29113329 -71.73925781 101.21313477 C-71.78319415 96.30475145 -71.80673632 91.39663073 -71.81700897 86.48806572 C-71.82431564 84.62925529 -71.83857948 82.7704568 -71.86042023 80.91176033 C-72.02791975 66.04579765 -70.96457147 51.087909 -63.6875 37.75 C-63.34388428 37.09515625 -63.00026855 36.4403125 -62.64624023 35.765625 C-54.15488785 20.07857181 -40.70085335 8.26265756 -23.625 2.8125 C-15.74235446 0.51464389 -8.15589715 0.00579666 0 0 Z " fill="#606FFF" transform="translate(1269.4375,472.8125)"/>
<path d="M0 0 C5.63077335 4.55254016 11.09641619 9.06701472 15.38671875 14.9296875 C14.68325317 15.62529785 14.68325317 15.62529785 13.96557617 16.33496094 C11.83247493 18.44721411 9.70331916 20.56340196 7.57421875 22.6796875 C6.83623047 23.40929687 6.09824219 24.13890625 5.33789062 24.890625 C4.26958008 25.95410156 4.26958008 25.95410156 3.1796875 27.0390625 C2.52508545 27.68842773 1.8704834 28.33779297 1.19604492 29.00683594 C-0.57370924 30.88763256 -2.10703056 32.83438884 -3.61328125 34.9296875 C-6.61328125 33.9296875 -6.61328125 33.9296875 -7.68359375 31.99609375 C-8.03164063 31.16980469 -8.3796875 30.34351563 -8.73828125 29.4921875 C-14.03421203 18.40878745 -23.30273714 10.23571211 -34.59667969 5.53393555 C-38.48233346 4.36965067 -42.40063024 4.48985743 -46.42578125 4.5546875 C-47.75428101 4.56665161 -47.75428101 4.56665161 -49.10961914 4.57885742 C-57.16270596 4.75455305 -65.09265044 5.79222081 -71.61328125 10.9296875 C-75.68750211 16.56169869 -75.60629378 22.21857781 -74.61328125 28.9296875 C-72.22933032 34.15812534 -67.73402739 36.97945032 -62.52734375 39.04296875 C-58.04527232 40.40681622 -53.48317917 41.33470522 -48.90014648 42.29418945 C-28.39232877 46.67033466 -0.46843476 53.59137835 12.25 71.5625 C18.53945181 81.85978864 18.55258325 92.46234955 16.92578125 104.27734375 C14.3020088 115.00394287 8.37808021 123.56021274 -0.61328125 129.9296875 C-13.30960063 137.38057915 -27.36316664 139.61593538 -41.81958008 139.45117188 C-44.04684628 139.42972539 -46.2708773 139.45110634 -48.49804688 139.4765625 C-61.49642421 139.50331053 -74.326284 137.44241395 -85.92578125 131.2421875 C-86.5811084 130.9033252 -87.23643555 130.56446289 -87.91162109 130.21533203 C-96.61425817 125.54339002 -103.8464073 119.06233842 -110.61328125 111.9296875 C-109.16086389 108.59734176 -107.32827265 106.38743144 -104.76953125 103.8203125 C-103.64224609 102.68916016 -103.64224609 102.68916016 -102.4921875 101.53515625 C-101.70714844 100.75785156 -100.92210937 99.98054687 -100.11328125 99.1796875 C-99.32824219 98.38691406 -98.54320312 97.59414063 -97.734375 96.77734375 C-96.60708984 95.65392578 -96.60708984 95.65392578 -95.45703125 94.5078125 C-94.76802734 93.82106445 -94.07902344 93.13431641 -93.36914062 92.42675781 C-91.61328125 90.9296875 -91.61328125 90.9296875 -89.61328125 90.9296875 C-88.3515625 92.8359375 -88.3515625 92.8359375 -86.92578125 95.4296875 C-82.25960575 103.34770845 -77.35974467 108.73803688 -69.67578125 113.7421875 C-69.10279297 114.11545166 -68.52980469 114.48871582 -67.93945312 114.87329102 C-60.32374847 119.61374446 -53.71775339 121.45327791 -44.73828125 121.3046875 C-43.85567627 121.29453613 -42.97307129 121.28438477 -42.0637207 121.27392578 C-32.88327358 121.05504071 -25.95593211 119.80827902 -18.98828125 113.52734375 C-15.64083305 109.63783717 -15.17388131 106.16932499 -15.296875 101.17578125 C-15.93858861 96.62040686 -18.54865379 93.88859412 -21.85546875 90.91015625 C-24.88802558 88.73238527 -27.49871847 87.69167014 -31.05078125 86.5546875 C-31.68693359 86.34972656 -32.32308594 86.14476562 -32.97851562 85.93359375 C-38.80900488 84.09470479 -44.71028163 82.51640651 -50.61328125 80.9296875 C-93.28628443 69.4423405 -93.28628443 69.4423405 -104.32421875 52.43359375 C-107.74605078 45.78694427 -109.14630638 40.1060544 -109.05078125 32.6171875 C-109.04320801 31.78268066 -109.03563477 30.94817383 -109.02783203 30.08837891 C-108.72523099 18.71543911 -104.55090568 9.41314736 -96.87109375 1.02734375 C-72.70523962 -21.88509471 -25.36876391 -18.86932853 0 0 Z " fill="#6070FF" transform="translate(801.61328125,486.0703125)"/>
<path d="M0 0 C10.75467593 8.65144294 14.77341719 22.7208002 16.50683594 35.89306641 C18.6832072 57.54752348 17.03933901 82.24393235 3.75 100.3125 C-2.45351102 107.42949506 -9.98811318 111.00749272 -19.3828125 111.69140625 C-30.04404935 112.137944 -38.23034868 110.68518203 -46.875 104.0625 C-50.70803335 100.39937061 -53.2021489 96.41080337 -55.625 91.75 C-55.94678223 91.14446289 -56.26856445 90.53892578 -56.60009766 89.91503906 C-62.15328313 78.37404546 -62.76093003 65.45049235 -62.625 52.875 C-62.62067963 52.20028656 -62.61635925 51.52557312 -62.61190796 50.83041382 C-62.47638353 32.7511341 -60.8083299 15.07963533 -47.65625 1.4453125 C-34.3046266 -10.38908096 -14.28389141 -9.62085744 0 0 Z " fill="#FDFEFF" transform="translate(616.25,496.6875)"/>
<path d="M0 0 C39.93 0 79.86 0 121 0 C121 6.27 121 12.54 121 19 C107.8 19 94.6 19 81 19 C81 61.24 81 103.48 81 147 C67.47 147 53.94 147 40 147 C40 104.76 40 62.52 40 19 C26.8 19 13.6 19 0 19 C0 12.73 0 6.46 0 0 Z " fill="#6171FF" transform="translate(1058,476)"/>
<path d="M0 0 C13.2 0 26.4 0 40 0 C40 42.24 40 84.48 40 128 C61.45 128 82.9 128 105 128 C105 133.94 105 139.88 105 146 C70.35 146 35.7 146 0 146 C0 97.82 0 49.64 0 0 Z " fill="#5F6FFF" transform="translate(1366,476)"/>
<path d="M0 0 C13.53 0 27.06 0 41 0 C41 48.51 41 97.02 41 147 C27.47 147 13.94 147 0 147 C0 98.49 0 49.98 0 0 Z " fill="#6171FF" transform="translate(997,476)"/>
<path d="M0 0 C33.95488722 0 33.95488722 0 41.62109375 6.078125 C50.10409096 16.22123564 51.02653521 25.03082752 50 38 C48.96292723 45.71754984 46.94550785 52.67124608 41 58 C27.06202558 66.68409621 19.37499979 64 0 64 C0 42.88 0 21.76 0 0 Z " fill="#FDFDFF" transform="translate(885,490)"/>
</svg>
